<svg xmlns="http://www.w3.org/2000/svg" width="1024" height="1024" viewBox="0 0 1024 1024">
<g>
<path d="M 636.33 744.25 C636.08,744.66 527.67,745.00 395.41,745.00 C203.95,745.00 154.84,744.75 154.46,743.75 C154.20,743.06 154.10,629.55 154.24,491.50 L 154.50 240.50 L 309.50 240.23 C394.75,240.08 465.52,240.20 466.76,240.50 L 469.02 241.04 L 468.76 289.77 L 468.50 338.50 L 263.50 339.50 L 263.24 389.13 L 262.98 438.76 L 265.24 439.37 C266.48,439.70 305.87,439.98 352.76,439.99 L 438.02 440.00 L 437.50 540.50 L 263.00 541.01 L 263.00 590.97 C263.00,640.00 263.04,640.95 265.01,642.01 C267.86,643.53 511.21,642.66 522.94,641.08 C537.94,639.06 554.42,634.05 572.50,626.00 C573.60,625.51 578.55,623.48 583.50,621.50 C588.45,619.51 596.10,616.11 600.50,613.94 C604.90,611.77 608.87,610.00 609.32,610.00 C609.76,610.00 612.69,608.83 615.81,607.39 C623.75,603.76 635.84,599.00 637.14,599.00 C637.92,599.00 638.02,619.50 637.50,671.25 C637.11,710.99 636.58,743.84 636.33,744.25 ZM 887.50 240.50 L 887.50 744.50 L 834.93 744.76 C806.01,744.90 782.05,744.71 781.68,744.34 C781.30,743.97 781.00,697.84 781.00,641.83 L 781.00 540.00 L 729.25 540.01 C673.97,540.02 656.54,540.80 637.50,544.10 C615.45,547.93 601.00,552.65 579.50,563.02 C547.64,578.39 529.63,585.96 528.23,584.56 C527.83,584.16 527.50,506.58 527.50,412.17 L 527.50 240.50 L 579.00 240.21 C607.33,240.06 631.96,240.19 633.75,240.51 L 636.99 241.09 L 637.25 340.29 L 637.50 439.50 L 707.24 439.76 C775.91,440.01 777.02,439.98 778.99,438.01 C780.97,436.03 781.00,434.78 781.00,337.99 L 781.00 239.98 L 834.25 240.24 ZM 125.00 1023.32 C126.38,1023.55 300.52,1023.79 512.00,1023.86 C534.12,1023.87 554.99,1023.88 574.68,1023.89 C890.69,1024.01 903.66,1024.01 915.47,1020.30 C916.71,1019.91 917.93,1019.48 919.50,1019.01 C944.37,1011.44 965.85,998.34 983.22,980.16 C1001.40,961.13 1013.38,940.09 1020.32,915.00 L 1023.50 903.50 L 1024.00 156.85 L 1024.00 1024.00 L 0.00 1024.00 L 0.00 0.00 L 1024.00 0.00 L 1024.00 127.40 L 1021.95 117.26 C1014.96,82.69 996.07,51.92 969.00,31.03 C966.53,29.12 964.28,27.25 964.00,26.88 C963.33,25.99 941.07,13.00 940.19,12.99 C939.81,12.99 938.16,12.29 936.52,11.44 C932.35,9.26 915.89,4.49 907.25,2.96 C903.26,2.26 900.00,1.30 900.00,0.83 C900.00,-0.53 120.08,0.26 119.21,1.63 C118.82,2.25 116.47,3.09 114.00,3.49 C102.63,5.35 81.01,13.99 69.54,21.25 C54.85,30.56 37.78,45.57 31.62,54.62 C30.46,56.33 27.07,61.25 24.10,65.55 C15.47,78.03 6.84,97.97 3.98,112.00 C3.26,115.57 2.18,118.82 1.58,119.21 C0.11,120.18 -0.47,900.00 0.99,900.00 C1.55,900.00 2.00,900.87 2.00,901.93 C2.00,903.00 3.33,909.00 4.95,915.29 C18.49,967.81 61.14,1009.48 113.00,1020.84 C118.22,1021.98 123.62,1023.10 125.00,1023.32 Z" fill="rgb(21,21,21)"/>
<path d="M 1.70 900.55 C1.51,900.21 1.27,900.00 0.99,900.00 C0.17,900.00 -0.00,656.96 0.25,442.07 L 0.31 513.61 C0.54,790.44 0.88,887.17 1.70,900.55 ZM 387.07 0.38 C492.24,0.19 610.60,0.10 707.11,0.13 L 509.85 0.29 ZM 1.37 125.08 C1.44,121.28 1.51,119.26 1.58,119.21 C2.18,118.82 3.26,115.57 3.98,112.00 C5.20,106.03 7.46,98.98 10.32,91.90 C7.29,99.77 4.85,108.20 2.98,117.28 ZM 895.57 0.67 C898.48,0.72 900.00,0.77 900.00,0.83 C900.00,1.30 903.26,2.26 907.25,2.96 C911.47,3.71 917.57,5.24 923.19,6.85 C917.69,5.32 911.25,3.79 904.83,2.51 ZM 107.65 1019.55 C94.90,1016.21 82.77,1011.02 71.56,1004.31 C82.65,1010.87 94.74,1015.99 107.65,1019.55 ZM 30.54 967.64 C20.93,955.11 13.27,940.98 8.08,925.76 C12.35,938.04 18.11,949.55 25.45,960.50 C27.08,962.94 28.78,965.33 30.54,967.64 ZM 117.23 2.72 C117.18,2.73 117.13,2.74 117.08,2.75 C118.18,2.38 119.00,1.97 119.21,1.63 C119.25,1.57 120.64,1.51 123.26,1.46 ZM 31.62 54.62 C34.61,50.24 40.15,44.45 46.75,38.60 C40.41,44.46 34.00,51.12 31.62,54.62 ZM 64.42 24.66 C66.14,23.46 67.86,22.32 69.54,21.25 C73.80,18.55 79.47,15.66 85.48,13.00 C85.01,13.22 84.53,13.44 84.04,13.67 C76.17,17.32 71.14,20.08 64.42,24.66 ZM 106.01 5.38 C108.16,4.76 110.17,4.24 112.00,3.87 C109.90,4.35 107.93,4.85 106.01,5.38 ZM 936.03 11.19 C936.21,11.28 936.38,11.36 936.52,11.44 C936.37,11.36 936.20,11.28 936.03,11.19 Z" fill="rgb(100,106,15)"/>
<path d="M 781.00 540.00 L 781.00 544.43 L 777.75 542.47 C774.66,540.60 772.16,540.48 728.00,540.19 C689.76,539.93 667.92,540.42 651.52,542.13 C667.13,540.47 687.28,540.02 729.25,540.01 ZM 597.14 555.16 C608.37,550.67 618.62,547.73 631.09,545.28 C618.53,547.78 608.26,550.73 597.14,555.16 Z" fill="rgb(190,200,73)"/>
<path d="M 125.00 1023.32 C83.05,1016.55 48.31,994.63 25.45,960.50 C13.56,942.77 5.81,923.57 1.83,902.00 C0.91,897.04 0.56,805.30 0.31,513.61 L -0.01 131.72 L 2.98 117.28 C7.18,96.94 14.20,79.84 24.39,65.12 C27.20,61.06 30.46,56.33 31.62,54.62 C35.40,49.08 49.30,35.55 57.00,29.93 C68.11,21.81 73.55,18.54 84.04,13.67 C95.91,8.16 104.18,5.43 117.23,2.72 L 127.50 0.58 L 509.85 0.29 L 892.19 -0.01 L 904.83 2.51 C918.32,5.19 931.92,9.03 936.62,11.49 C938.21,12.31 939.81,12.99 940.19,12.99 C941.07,13.00 963.33,25.99 964.00,26.88 C964.28,27.25 966.53,29.12 969.00,31.03 C996.07,51.92 1014.96,82.69 1021.95,117.26 L 1024.02 127.50 L 1023.76 515.50 L 1023.50 903.50 L 1020.32 915.00 C1013.38,940.09 1001.40,961.13 983.22,980.16 C965.85,998.34 944.37,1011.44 919.50,1019.01 C902.11,1024.30 926.38,1024.01 512.00,1023.86 C300.52,1023.79 126.38,1023.55 125.00,1023.32 ZM 636.33 744.25 C636.58,743.84 637.11,710.99 637.50,671.25 C638.02,619.50 637.92,599.00 637.14,599.00 C635.84,599.00 623.75,603.76 615.81,607.39 C612.69,608.83 609.76,610.00 609.32,610.00 C608.87,610.00 604.90,611.77 600.50,613.94 C596.10,616.11 588.45,619.51 583.50,621.50 C578.55,623.48 573.60,625.51 572.50,626.00 C554.42,634.05 537.94,639.06 522.94,641.08 C511.21,642.66 267.86,643.53 265.01,642.01 C263.04,640.95 263.00,640.00 263.00,590.97 L 263.00 541.01 L 350.25 540.76 L 437.50 540.50 L 437.76 490.25 L 438.02 440.00 L 352.76 439.99 C305.87,439.98 266.48,439.70 265.24,439.37 L 262.98 438.76 L 263.24 389.13 L 263.50 339.50 L 366.00 339.00 L 468.50 338.50 L 468.76 289.77 L 469.02 241.04 L 466.76 240.50 C465.52,240.20 394.75,240.08 309.50,240.23 L 154.50 240.50 L 154.24 491.50 C154.10,629.55 154.20,743.06 154.46,743.75 C154.84,744.75 203.95,745.00 395.41,745.00 C527.67,745.00 636.08,744.66 636.33,744.25 ZM 887.50 492.50 L 887.50 240.50 L 834.25 240.24 L 781.00 239.98 L 781.00 337.99 C781.00,434.78 780.97,436.03 778.99,438.01 C777.02,439.98 775.91,440.01 707.24,439.76 L 637.50 439.50 L 637.25 340.29 L 636.99 241.09 L 633.75 240.51 C631.96,240.19 607.33,240.06 579.00,240.21 L 527.50 240.50 L 527.50 412.17 C527.50,506.58 527.83,584.16 528.23,584.56 C529.63,585.96 547.75,578.35 579.58,562.98 C600.87,552.70 615.41,547.97 637.90,544.01 C656.25,540.79 678.25,539.85 728.00,540.19 C772.16,540.48 774.66,540.60 777.75,542.47 L 781.00 544.43 L 781.00 644.05 C781.00,698.84 781.30,743.97 781.68,744.34 C782.05,744.71 806.01,744.90 834.93,744.76 L 887.50 744.50 L 887.50 492.50 Z" fill="rgb(242,247,8)"/>
</g>
</svg>